<?xml version="1.0" encoding="utf-8"?>
<!-- Generator: Adobe Illustrator 16.0.0, SVG Export Plug-In . SVG Version: 6.00 Build 0)  -->
<!DOCTYPE svg PUBLIC "-//W3C//DTD SVG 1.1//EN" "http://www.w3.org/Graphics/SVG/1.1/DTD/svg11.dtd">
<svg version="1.1" id="Layer_1" xmlns="http://www.w3.org/2000/svg" xmlns:xlink="http://www.w3.org/1999/xlink" x="0px" y="0px"
	 width="864px" height="864px" viewBox="0 0 864 864" enable-background="new 0 0 864 864" xml:space="preserve">
<path fill="white" fill-rule="evenodd" clip-rule="evenodd" d="M267.259,749.189c-20.857-2.77-39.905-5.298-58.952-7.837
	c-1.455-0.193-3.061-0.129-4.326-0.742c-34.318-16.648-70.124-30.837-99.582-55.922c-18.673-15.9-34.121-35.379-42.9-58.004
	c-7.149-18.425-9.446-38.873-12.656-58.624c-1.554-9.556-0.47-19.579-0.212-29.381c0.339-12.889,2.696-25.253,9.737-36.464
	c11.43-18.199,21.663-36.918,40.017-50.01c19.03-13.573,39.753-21.915,62.607-22.64c47.984-1.522,96.018-1.721,144.034-1.936
	c12.913-0.058,25.821,2.14,38.757,2.622c8.038,0.3,16.125-0.665,24.188-1.108c0.703-0.038,1.884-0.267,2.006-0.664
	c1.778-5.798,3.814-11.565,4.938-17.501c0.707-3.736,0.317-7.317-4.435-9.596c-25.156-12.059-50.197-24.368-75.08-36.981
	c-5.966-3.024-9.427-1.3-13.133,5.386c-8.016-12.118-15.663-23.149-22.729-34.542c-4.962-8-9.266-16.421-13.573-24.804
	c-1.3-2.529-2.438-5.613-2.246-8.344c0.463-6.587-2.627-8.757-8.71-8.211c0-4.131-0.514-8.109,0.121-11.895
	c0.956-5.705-0.754-8.483-7.319-7.703c1.182-3.504,2.154-6.39,3.382-10.028c-43.268,2.639-85.773,5.229-128.279,7.821
	c-0.118-0.497-0.236-0.994-0.354-1.492c6.934-2.142,13.867-4.283,20.799-6.425c-0.03-0.359-0.061-0.718-0.091-1.078
	c-4.2,0-8.4,0-12.6,0c-0.023-0.422-0.046-0.845-0.068-1.267c21.102-3.035,42.198-6.121,63.31-9.089
	c21.339-3.001,42.702-5.829,64.027-8.926c1.853-0.27,4-1.594,5.141-3.092c3.515-4.614,6.61-9.55,10.306-15.008
	c-36.59-11.279-73.025-22.511-109.46-33.742c0.111-0.404,0.222-0.808,0.333-1.21c26.498,5.685,53.007,11.319,79.488,17.077
	c10.993,2.39,21.974,4.86,32.868,7.657c4.454,1.144,7.695,0.326,9.928-3.625c2.703-4.781,8.979-8.29,5.304-15.382
	c-5.405-10.427-10.654-20.934-15.938-31.423c-1.172-2.327-2.209-4.721-2.079-7.809c8.058,12.778,16.115,25.555,24.624,39.049
	c3.865-4.252,6.741-8.298,10.445-11.335c13.98-11.464,28.102-22.767,42.458-33.754c4.098-3.137,5.874-6.152,5.598-11.51
	c-1.297-25.167-2.091-50.358-1.913-76.216c1.352,2.081,2.79,4.111,4.042,6.25c11.633,19.867,23.375,39.673,34.74,59.692
	c2.665,4.693,5.318,6.476,10.963,5.55c25.617-4.204,51.247-2.718,76.862,0.611c8.98,1.167,18.055,1.878,27.101,2.056
	c1.904,0.037,4.668-2.804,5.688-4.958c10.371-21.893,20.43-43.935,30.672-65.89c1.369-2.934,3.274-5.615,4.931-8.414
	c0.671,0.126,1.342,0.251,2.012,0.376c0.426,3.976,1.108,7.943,1.236,11.928c0.771,24.015,1.636,48.031,1.971,72.053
	c0.102,7.283,2.192,12.207,8.651,16.198c20.893,12.91,40.209,27.911,56.929,46.024c3.121,3.381,5.749,7.219,9.131,11.515
	c34.835-19.53,70.136-39.32,105.438-59.111c0.32,0.429,0.64,0.858,0.96,1.288c-6.028,4.975-12.056,9.949-18.432,15.21
	c1.612,0.609,2.627,0.993,4.188,1.584c-24.281,16.749-48.264,33.293-72.249,49.834c-3.429,2.365-6.968,4.586-10.249,7.138
	c-1.138,0.884-1.653,2.568-2.454,3.886c1.583,0.797,3.207,2.357,4.741,2.274c14.926-0.809,29.823-2.426,44.755-2.799
	c44.342-1.107,88.694-1.758,133.045-2.557c0.609-0.011,1.224,0.377,1.836,0.579c0.043,0.672,0.085,1.345,0.128,2.018
	c-58.647,5.562-117.295,11.123-176.647,16.752c2.647,7.358,5.15,14.31,8.198,22.783c-3.46-2.184-5.448-3.44-7.539-4.759
	c-0.645,13.937,2.283,17.268,15.266,18.81c32.82,3.899,65.727,7.283,98.384,12.277c17.755,2.715,35.071,8.298,52.388,14.035
	c-6.782-0.445-13.562-0.89-22.033-1.446c3.161,2.999,5.141,4.875,8.862,8.406c-49.874-8.415-97.667-16.479-146.526-24.723
	c1.065,5.474,2.006,10.31,2.821,14.499c-2.937,1.128-5.547,2.13-9.091,3.492c0.281,0.255-0.681-0.618-2.09-1.897
	c-0.437,6.578-0.833,12.564-1.321,19.932c-2.595-2.987-4.144-4.769-6.888-7.927c-11.166,21.813-26.457,38.938-49.443,48.37
	c0.195-1.396,0.396-2.832,0.723-5.167c-9.423,3.786-18.372,6.971-26.974,10.915c-23.382,10.72-48.707,14.412-73.361,20.435
	c-6.93,1.692-10.269,4.909-10.89,11.61c-0.622,6.718-1.237,13.438-1.781,19.351c15.098,0,28.994-0.276,42.874,0.068
	c18.421,0.457,35.785-5.01,53.489-8.702c20.129-4.197,40.523-7.306,60.414-12.405c22.258-5.707,44.427-12.164,66-20.036
	c24.308-8.871,48.9-13.37,74.208-8.001c10.982,2.33,21.322,8.257,31.551,13.361c6.301,3.145,12.153,7.437,17.606,11.941
	c3.67,3.032,7.455,6.865,9.188,11.149c10.687,26.429,18.348,53.752,11.119,82.272c-4.004,15.794-13.87,29.329-27.209,38.939
	c-4.845,3.491-12.556,3.09-18.995,4.274c-23.551,4.335-43.41-2.957-60.315-19.367c-2.11-2.05-3.905-4.53-6.285-6.18
	c-10.397-7.209-12.896-18.005-13.305-29.498c-0.388-10.948,9.343-30.383,22.586-35.231c11.14-4.078,29.959,0.751,37.83,10.207
	c6.791,8.156,5.932,17.782,4.982,27.37c-0.187,1.882-0.734,3.728-1.128,5.657c11.494,0.208,17.734-1.178,16.736-15.727
	c-0.383-5.569,1.125-11.26,0.828-16.845c-1.144-21.549-13.083-36.279-32.292-43.656c-8.008-3.076-18.591-1.924-27.39,0.045
	c-19.297,4.32-38.013,11.234-57.309,15.565c-40.68,9.131-80.958,20.611-122.878,23.207c-24.699,1.529-49.398,3.117-74.117,4.268
	c-4.93,0.229-6.206,2.383-6.551,6.479c-1.892,22.46-3.836,44.916-5.737,67.375c-0.612,7.241-1.147,14.49-1.752,22.158
	c17.156-9.983,33.983-18.844,49.84-29.193c33.583-21.921,69.883-31.532,109.408-23.928c9.996,1.924,18.762,9.948,28.262,14.841
	c9.92,5.109,20.04,9.827,30.08,14.701c1.901,0.925,3.837,1.78,6.81,3.153c-3.647,1.05-6.074,1.748-10.642,3.062
	c11.767,7.438,22.08,13.957,34.025,21.507c-4.826,0.804-7.829,1.305-12.532,2.089c10.893,9.786,20.954,18.826,31.014,27.866
	c-0.412,0.626-0.826,1.253-1.238,1.879c-5.087-2.219-10.176-4.436-16.839-7.341c2.857,9.242,5.317,17.198,7.958,25.742
	c-3.336-1.329-6.355-2.531-10.364-4.128c1.42,20.007,2.78,39.193,4.285,60.413c-3.525-2.87-5.456-4.443-7.894-6.429
	c-2.22,2.293-4.509,4.678-6.819,7.041c-17.471,17.87-35.521,35.223-52.168,53.829c-7.947,8.882-13.231,20.146-19.713,30.318
	c16.016,0,30.643-0.67,45.164,0.277c7.487,0.487,15.52,2.545,22.018,6.188c12.729,7.138,25.164,14.9,34.744,26.621
	c3.991,4.884,5.818,10.03,3.26,14.5c-1.687,2.949-7.621,4.877-11.651,4.873c-119.872-0.13-239.744-0.453-359.615-1
	c-39.453-0.18-78.904-1.026-118.354-1.667c-4.621-0.075-9.243-0.694-13.846-1.225c-5.351-0.618-8.02-4.472-5.675-9.389
	c7.165-15.026,15.728-28.825,32.743-34.802C248.796,757.017,257.198,753.252,267.259,749.189z M281.939,506.309
	c6.912,2.378,13.029,4.902,19.374,6.548c6.148,1.595,12.681,1.756,18.773,3.497c9.313,2.661,19.111,4.867,27.413,9.553
	c14.464,8.163,27.938,18.08,41.851,27.227c1.698,1.116,3.542,2.008,6.668,3.762c-7.159-33.228-13.988-64.916-20.808-96.564
	c-2.306-0.187-3.748-0.406-5.188-0.405c-61.269,0.04-122.538-0.075-183.804,0.318c-10.915,0.069-21.882,1.844-32.708,3.563
	c-20.425,3.244-35.469,13.917-46.809,31.676c-21.724,34.021-21.018,69.177-7.264,105.058c7.042,18.372,17.545,34.987,33.314,47.543
	c8.041,6.403,16.271,12.568,24.343,18.934c24.257,19.129,52.79,27.776,83.098,34.237c-0.8-1.895-1.297-3.17-1.87-4.412
	c-8.707-18.864-17.718-37.595-26-56.644c-3.565-8.199-5.587-17.064-8.4-25.599c-0.5-1.518-1.448-2.887-2.175-4.332
	c-1.099-2.179-3.133-4.374-3.11-6.544c0.093-8.509,0.836-17.012,1.365-25.976c-3.158,0.171-5.462,0.295-7.902,0.427
	c0.879-7.52,11.761-10.514,8.076-19.538c24.545-20.523,25.5-21.708,20.763-26.398c7.628-3.044,14.971-6.472,22.637-8.871
	c5.752-1.8,10.325-3.707,9.074-10.103c10.6,0.432,20.782,4.097,30.892-1.121C282.982,510.107,282.542,508.504,281.939,506.309z
	 M524.734,203.898c-7.059-1.795-13.595-3.458-20.182-5.133c2.332-1.857,4.75-3.783,7.63-6.076c-1.659-0.917-2.637-1.688-3.746-2.034
	c-17.396-5.423-33.36-0.564-48.718,7.289c-2.637,1.348-5.597,4.264-6.224,6.963c-2.671,11.505-7.267,22.808-2.423,35.129
	c8.324,21.176,24.653,34.409,43.594,44.897c15.963,8.838,32.805,9.216,49.491,1.72c12.035-5.406,24.606-10.627,24.962-26.978
	c7.021-3.995,2.234-8.84,0.779-13.235c-4.83-14.588-15.694-24.322-27.486-33.155c-2.807-2.103-6.136-3.608-9.42-4.885
	c-0.589-0.229-3.012,1.959-3.074,3.115c-0.183,3.295,0.971,6.693,0.615,9.943c-2.225,20.347-12.02,35.178-31.807,42.435
	c-9.222,3.382-13.756,1.113-15.823-8.677c-2.896-13.713,1.669-25.959,8.112-38.274c1.919,1.679,3.392,2.967,6.959,6.088
	c0.911-7.427,1.577-12.853,2.281-18.596C511.15,216.359,519.374,216.477,524.734,203.898z M287.383,256.787
	c1.049,2.467,2.314,4.868,3.091,7.418c0.799,2.63,0.175,6.349,1.795,7.973c25.643,25.709,64.115,27.006,90.423-1.815
	c8.849-9.695,16.088-20.951,23.401-31.934c10.375-15.584,2.039-38.701-15.729-42.01c-13.272-2.472-27.013-2.425-40.546-3.5
	c-0.14,0.647-0.281,1.295-0.421,1.943c1.41,1.549,2.82,3.098,3.357,3.687c-6.245,1.855-12.495,3.712-20.596,6.119
	c3.257,3.623,4.701,6.66,6.944,7.464c7.851,2.815,14.059-0.076,18.253-8.503c1.032,6.801,1.857,12.239,2.936,19.342
	c3.531-3.103,4.98-4.375,6.855-6.022c6.416,12.945,11.089,25.418,7.663,39.408c-1.291,5.273-3.896,10.034-10.361,9.207
	c-16.443-2.104-35.798-23.322-36.688-40.108c-0.356-6.725-0.059-13.484-0.059-20.47
	C309.263,208.702,289.583,233.836,287.383,256.787z"/>
</svg>
